<svg width="25" height="27" viewBox="0 0 25 27" fill="none" xmlns="http://www.w3.org/2000/svg">
<path d="M10.145 13.6295C10.0438 13.6295 9.94253 13.5909 9.86533 13.5136C9.71087 13.3592 9.71087 13.1088 9.86533 12.9543L13.7483 9.07141C13.9027 8.91695 14.1532 8.91695 14.3076 9.07141C14.4621 9.22587 14.4621 9.47631 14.3076 9.63071L10.4247 13.5136C10.3474 13.5909 10.2462 13.6295 10.145 13.6295Z" fill="#00BFF3"/>
<path d="M10.3224 10.7708C9.6375 10.7708 9.08026 10.2136 9.08026 9.52859C9.08026 8.84362 9.6375 8.28638 10.3224 8.28638C11.0074 8.28638 11.5646 8.84362 11.5646 9.52859C11.5646 10.2136 11.0074 10.7708 10.3224 10.7708ZM10.3224 9.07739C10.0737 9.07739 9.87128 9.27979 9.87128 9.52859C9.87128 9.77739 10.0737 9.97978 10.3224 9.97978C10.5712 9.97978 10.7736 9.77739 10.7736 9.52859C10.7736 9.27979 10.5712 9.07739 10.3224 9.07739Z" fill="#00BFF3"/>
<path d="M13.8505 14.2989C13.1655 14.2989 12.6082 13.7416 12.6082 13.0567C12.6082 12.3717 13.1655 11.8145 13.8505 11.8145C14.5354 11.8145 15.0927 12.3717 15.0927 13.0567C15.0927 13.7416 14.5354 14.2989 13.8505 14.2989ZM13.8505 12.6055C13.6017 12.6055 13.3993 12.8079 13.3993 13.0567C13.3993 13.3055 13.6017 13.5079 13.8505 13.5079C14.0993 13.5079 14.3017 13.3055 14.3017 13.0567C14.3017 12.8079 14.0993 12.6055 13.8505 12.6055Z" fill="#00BFF3"/>
<path d="M12.0865 16.8222C15.1356 16.8222 17.6163 14.3415 17.6163 11.2924C17.6163 8.24332 15.1356 5.7627 12.0865 5.7627C9.03738 5.7627 6.5567 8.24332 6.5567 11.2925C6.5567 14.3416 9.03738 16.8222 12.0865 16.8222ZM12.0865 6.55371C14.6994 6.55371 16.8252 8.67949 16.8252 11.2925C16.8252 13.9055 14.6995 16.0312 12.0865 16.0312C9.47355 16.0312 7.34772 13.9054 7.34772 11.2924C7.34772 8.67949 9.47355 6.55371 12.0865 6.55371V6.55371Z" fill="#00BFF3"/>
<path d="M18.2106 20.2434C17.9016 20.2434 17.7648 20.158 17.5755 20.0397C17.3445 19.8955 17.057 19.7161 16.5214 19.7161C15.9857 19.7161 15.6983 19.8955 15.4672 20.0397C15.2779 20.158 15.141 20.2434 14.832 20.2434C14.523 20.2434 14.3861 20.158 14.1967 20.0397C13.9657 19.8956 13.6782 19.7161 13.1425 19.7161C12.6069 19.7161 12.3194 19.8955 12.0883 20.0397C11.8989 20.158 11.7621 20.2434 11.453 20.2434C11.144 20.2434 11.0071 20.158 10.8178 20.0397C10.5868 19.8955 10.2993 19.7161 9.76359 19.7161C9.22786 19.7161 8.94036 19.8955 8.70933 20.0397C8.51991 20.158 8.38301 20.2434 8.07393 20.2434C7.76485 20.2434 7.62796 20.158 7.43848 20.0397C7.20745 19.8956 6.91994 19.7161 6.38422 19.7161C6.16579 19.7161 5.98871 19.8931 5.98871 20.1116C5.98871 20.33 6.16579 20.5071 6.38422 20.5071C6.69329 20.5071 6.83019 20.5925 7.01961 20.7107C7.25064 20.8549 7.53815 21.0344 8.07388 21.0344C8.60961 21.0344 8.89711 20.855 9.12814 20.7107C9.31757 20.5925 9.45446 20.5071 9.76359 20.5071C10.0726 20.5071 10.2095 20.5925 10.3989 20.7107C10.6299 20.855 10.9174 21.0344 11.453 21.0344C11.9887 21.0344 12.2762 20.855 12.5073 20.7107C12.6967 20.5925 12.8335 20.5071 13.1425 20.5071C13.4516 20.5071 13.5884 20.5925 13.7778 20.7107C14.0088 20.855 14.2963 21.0344 14.8319 21.0344C15.3676 21.0344 15.6551 20.855 15.8861 20.7107C16.0755 20.5925 16.2123 20.5071 16.5213 20.5071C16.8303 20.5071 16.9671 20.5925 17.1565 20.7107C17.3875 20.855 17.6749 21.0344 18.2105 21.0344C18.429 21.0344 18.606 20.8573 18.606 20.6389C18.6061 20.4205 18.429 20.2434 18.2106 20.2434Z" fill="#00BFF3"/>
<path d="M6.38421 18.5371C6.69328 18.5371 6.83018 18.6225 7.0196 18.7408C7.25063 18.8849 7.53814 19.0645 8.07387 19.0645C8.6096 19.0645 8.89711 18.885 9.12814 18.7408C9.31756 18.6225 9.45446 18.5371 9.76358 18.5371C10.0726 18.5371 10.2095 18.6225 10.3989 18.7408C10.6299 18.885 10.9174 19.0645 11.453 19.0645C11.9887 19.0645 12.2762 18.885 12.5072 18.7408C12.6967 18.6225 12.8335 18.5371 13.1425 18.5371C13.4516 18.5371 13.5884 18.6225 13.7778 18.7408C14.0088 18.885 14.2963 19.0645 14.8319 19.0645C15.3676 19.0645 15.6551 18.885 15.8861 18.7408C16.0755 18.6225 16.2123 18.5371 16.5213 18.5371C16.8303 18.5371 16.9671 18.6225 17.1565 18.7408C17.3874 18.885 17.6749 19.0645 18.2105 19.0645C18.429 19.0645 18.606 18.8874 18.606 18.6689C18.606 18.4505 18.429 18.2734 18.2105 18.2734C17.9016 18.2734 17.7648 18.188 17.5754 18.0698C17.3444 17.9255 17.057 17.7461 16.5213 17.7461C15.9857 17.7461 15.6982 17.9255 15.4672 18.0698C15.2778 18.188 15.141 18.2734 14.8319 18.2734C14.5229 18.2734 14.386 18.188 14.1966 18.0698C13.9657 17.9256 13.6782 17.7461 13.1425 17.7461C12.6068 17.7461 12.3193 17.9255 12.0883 18.0698C11.8989 18.188 11.762 18.2734 11.453 18.2734C11.144 18.2734 11.0071 18.188 10.8177 18.0698C10.5867 17.9255 10.2992 17.7461 9.76353 17.7461C9.2278 17.7461 8.9403 17.9255 8.70927 18.0698C8.51984 18.188 8.38295 18.2734 8.07387 18.2734C7.76479 18.2734 7.6279 18.188 7.43842 18.0698C7.20739 17.9256 6.91988 17.7461 6.38416 17.7461C6.16573 17.7461 5.98865 17.9232 5.98865 18.1416C5.98865 18.36 6.16578 18.5371 6.38421 18.5371V18.5371Z" fill="#00BFF3"/>
<path d="M23.7774 26.209H23.1225V22.8339C23.1225 22.6155 22.9455 22.4384 22.727 22.4384C22.5086 22.4384 22.3315 22.6155 22.3315 22.8339V26.209H20.8583V3.58705C20.8583 3.58705 22.2306 3.57713 22.3315 3.5592V21.0801C22.3315 21.2986 22.5086 21.4757 22.727 21.4757C22.9455 21.4757 23.1225 21.2986 23.1225 21.0801V3.2005C23.5286 2.87619 23.7895 2.37737 23.7895 1.81849V1.7685C23.7895 0.793336 22.9961 0 22.021 0H2.4156C1.44044 0 0.647104 0.793336 0.647104 1.7685V1.81849C0.647104 2.37737 0.90798 2.87619 1.31404 3.2005V13.6992C1.31404 13.9177 1.49112 14.0947 1.70954 14.0947C1.92797 14.0947 2.10505 13.9177 2.10505 13.6992V3.55915C2.20598 3.57713 3.57829 3.58699 3.57829 3.58699V26.209H2.10505V15.2813C2.10505 15.0629 1.92797 14.8858 1.70954 14.8858C1.49112 14.8858 1.31404 15.0629 1.31404 15.2813V26.209H0.395508C0.177082 26.209 0 26.3861 0 26.6045C0 26.8229 0.177082 27 0.395508 27H5.28783C5.50626 27 5.68334 26.8229 5.68334 26.6045C5.68334 26.3861 5.50626 26.209 5.28783 26.209H4.36931V23.0423H20.0673V26.209H19.4125C19.194 26.209 19.017 26.3861 19.017 26.6045C19.017 26.8229 19.194 27 19.4125 27H23.7775C23.9959 27 24.173 26.8229 24.173 26.6045C24.173 26.3861 23.9958 26.209 23.7774 26.209V26.209ZM1.43812 1.81849V1.7685C1.43812 1.2295 1.87661 0.791016 2.4156 0.791016H22.021C22.56 0.791016 22.9985 1.2295 22.9985 1.7685V1.81849C22.9985 2.35749 22.56 2.79598 22.021 2.79598H2.4156C1.87661 2.79603 1.43812 2.35749 1.43812 1.81849ZM4.36931 22.2513V3.58705H20.0673V22.2513H4.36931Z" fill="#00BFF3"/>
</svg>
