<svg width="24" height="28" viewBox="0 0 24 28" fill="none" xmlns="http://www.w3.org/2000/svg">
<path d="M23.2868 23.6169L21.2836 20.2779C20.3585 18.7367 19.8696 16.9715 19.8696 15.1749V12.25C19.8696 8.5575 17.4056 5.43435 14.0363 4.4275V2.33335C14.0363 1.0465 12.9898 0 11.7029 0C10.4161 0 9.36958 1.0465 9.36958 2.33335V4.4275C6.00028 5.43435 3.53628 8.5575 3.53628 12.25V15.1749C3.53628 16.9715 3.04743 18.7355 2.12343 20.2767L0.12028 23.6157C0.0117798 23.7966 0.00942826 24.0206 0.11328 24.2037C0.217131 24.3869 0.409631 24.5001 0.619631 24.5001H22.7863C22.9963 24.5001 23.1899 24.3869 23.2938 24.2049C23.3976 24.0229 23.3941 23.7965 23.2868 23.6169Z" fill="#272727"/>
<path d="M8.02905 25.6666C8.68705 27.041 10.0801 28 11.7028 28C13.3256 28 14.7187 27.041 15.3767 25.6666H8.02905V25.6666Z" fill="#272727"/>
<circle cx="18.0002" cy="7" r="4.5" fill="#00BFF3" stroke="white"/>
</svg>
