<svg width="21" height="27" viewBox="0 0 21 27" fill="none" xmlns="http://www.w3.org/2000/svg">
<path d="M7.94541 11.7581H6.75872L6.15905 13.9333L3.74343 13.9372L3.33276 14.965L5.45052 16.3576L4.47243 18.6082L5.37213 19.2784L7.35272 17.6506L9.33286 19.2784L10.233 18.6082L9.25491 16.3576L11.3731 14.9645L10.9603 13.9359L8.55465 13.9355L7.94541 11.7581ZM8.16402 16.0328L8.94702 17.8339L7.35315 16.5236L5.75928 17.8335L6.54141 16.0328L4.6771 14.8064L6.82273 14.8034L7.35402 12.8773L7.89359 14.8064L10.0283 14.8069L8.16402 16.0328Z" fill="#00BFF3"/>
<path d="M7.40323 10.0161C4.28169 10.0161 1.74194 12.5559 1.74194 15.6774C1.74194 18.799 4.28169 21.3387 7.40323 21.3387C10.5248 21.3387 13.0645 18.799 13.0645 15.6774C13.0645 12.5559 10.5248 10.0161 7.40323 10.0161ZM7.40323 20.4677C4.76202 20.4677 2.61291 18.3186 2.61291 15.6774C2.61291 13.0362 4.76202 10.8871 7.40323 10.8871C10.0444 10.8871 12.1936 13.0362 12.1936 15.6774C12.1936 18.3186 10.0444 20.4677 7.40323 20.4677Z" fill="#00BFF3"/>
<path d="M1.74194 6.09668H2.61291V6.96765H1.74194V6.09668Z" fill="#00BFF3"/>
<path d="M1.74194 9.58057H2.61291V10.4515H1.74194V9.58057Z" fill="#00BFF3"/>
<path d="M1.74194 7.83862H2.61291V8.70959H1.74194V7.83862Z" fill="#00BFF3"/>
<path d="M12.1935 22.6453H13.0645V23.5162H12.1935V22.6453Z" fill="#00BFF3"/>
<path d="M12.1935 20.9033H13.0645V21.7743H12.1935V20.9033Z" fill="#00BFF3"/>
<path d="M12.1935 19.1614H13.0645V20.0323H12.1935V19.1614Z" fill="#00BFF3"/>
<path d="M20.9032 4.79032C20.9032 2.83674 17.8426 1.30645 13.9355 1.30645C13.1616 1.30645 12.4074 1.37003 11.6858 1.48935L10.1964 0H4.61003L0 4.61003V27H14.8065V8.24545C18.2868 8.03685 20.9032 6.59584 20.9032 4.79032V4.79032ZM4.97061 0.870968H9.83584L13.3197 4.35484H9.53666C9.33416 3.36237 8.45448 2.6129 7.40323 2.6129C6.35197 2.6129 5.47229 3.36237 5.26979 4.35484H1.48674L4.97061 0.870968ZM7.83871 4.79032C7.83871 4.41581 8.05166 4.08919 8.29292 3.83923C8.54811 4.07787 8.70968 4.4145 8.70968 4.79032C8.70968 5.16223 8.5516 5.49624 8.30163 5.73445C8.00158 5.427 7.83871 5.10431 7.83871 4.79032ZM7.45853 6.09111C7.43981 6.09198 7.42195 6.09677 7.40323 6.09677C6.68294 6.09677 6.09677 5.51061 6.09677 4.79032C6.09677 4.07003 6.68294 3.48387 7.40323 3.48387C7.41934 3.48387 7.43415 3.48823 7.45026 3.48866C7.13497 3.89584 6.96774 4.33655 6.96774 4.79032C6.96774 5.25281 7.14455 5.6909 7.45853 6.09111V6.09111ZM9.53666 5.22581H13.9355V7.40323C11.8055 7.40323 10.064 6.91766 8.99405 6.26618C9.261 5.97919 9.45566 5.62384 9.53666 5.22581ZM13.9355 24.3871H2.6129V25.2581H13.9355V26.129H0.870968V25.2581H1.74194V24.3871H0.870968V5.22581H5.26979C5.47229 6.21827 6.35153 6.96774 7.40323 6.96774C7.69326 6.96774 7.96892 6.90852 8.22237 6.80487C9.47134 7.69848 11.5429 8.27419 13.9355 8.27419V24.3871ZM14.8065 7.37231V4.61003L12.4579 2.26147C12.9391 2.2079 13.4321 2.17742 13.9355 2.17742C17.5282 2.17742 20.0323 3.55442 20.0323 4.79032C20.0323 5.92345 17.925 7.17155 14.8065 7.37231Z" fill="#00BFF3"/>
</svg>
