<svg width="29" height="29" viewBox="0 0 29 29" fill="none" xmlns="http://www.w3.org/2000/svg">
<path d="M11.406 1H2.969C1.88201 1.0011 1.0011 1.88201 1 2.969V8.031C1.0011 9.11799 1.88201 9.9989 2.969 10H11.406C12.493 9.9989 13.3739 9.11799 13.375 8.031V2.969C13.3739 1.88201 12.493 1.0011 11.406 1Z" stroke="#00BFF3" stroke-width="1.5"/>
<path d="M11.406 12.25H2.969C1.88201 12.2511 1.0011 13.132 1 14.219V26.032C1.00165 27.1186 1.8824 27.9989 2.969 28H11.406C12.493 27.9989 13.3739 27.118 13.375 26.031V14.219C13.3739 13.132 12.493 12.2511 11.406 12.25Z" stroke="#00BFF3" stroke-width="1.5"/>
<path d="M26.031 19H17.594C16.507 19.0011 15.6261 19.882 15.625 20.969V26.032C15.6267 27.1186 16.5074 27.9989 17.594 28H26.032C27.1186 27.9983 27.9989 27.1176 28 26.031V20.969C27.9989 19.882 27.118 19.0011 26.031 19V19Z" stroke="#00BFF3" stroke-width="1.5"/>
<path d="M26.031 1H17.594C16.507 1.0011 15.6261 1.88201 15.625 2.969V14.781C15.6261 15.868 16.507 16.7489 17.594 16.75H26.032C27.1186 16.7483 27.9989 15.8676 28 14.781V2.969C27.9989 1.88201 27.118 1.0011 26.031 1V1Z" stroke="#00BFF3" stroke-width="1.5"/>
</svg>
