<svg width="35" height="35" viewBox="0 0 35 35" fill="none" xmlns="http://www.w3.org/2000/svg">
<circle cx="17.5" cy="17.5" r="17.5" fill="#D35A8B"/>
<path d="M22.9092 14.4656H13.0889C12.7917 14.4656 12.5508 14.7065 12.5508 15.0036V23.4091C12.5508 24.8378 13.7132 26.0001 15.1418 26.0001H20.8561C22.2848 26.0001 23.4471 24.8378 23.4471 23.4091V15.0036C23.4472 14.7065 23.2064 14.4656 22.9092 14.4656ZM16.7055 22.7594C16.7055 23.1245 16.4096 23.4204 16.0445 23.4204C15.6795 23.4204 15.3834 23.1245 15.3834 22.7594V17.7063C15.3834 17.3412 15.6794 17.0452 16.0445 17.0452C16.4096 17.0452 16.7055 17.3412 16.7055 17.7063V22.7594ZM20.6146 22.7594C20.6146 23.1245 20.3186 23.4204 19.9535 23.4204C19.5885 23.4204 19.2924 23.1245 19.2924 22.7594V17.7063C19.2924 17.3412 19.5885 17.0452 19.9535 17.0452C20.3186 17.0452 20.6146 17.3412 20.6146 17.7063V22.7594Z" fill="white"/>
<path d="M22.37 10.8372H20.0261V10.6339C20.0261 10.2844 19.7418 10 19.3922 10H16.6055C16.256 10 15.9716 10.2844 15.9716 10.6339V10.8372H13.6277C12.7302 10.8372 12 11.5673 12 12.4649V13.5087C12 13.6953 12.1513 13.8467 12.3381 13.8467H23.6597C23.8464 13.8467 23.9977 13.6953 23.9977 13.5087V12.4649C23.9977 11.5674 23.2675 10.8372 22.37 10.8372Z" fill="white"/>
</svg>
