<svg width="35" height="35" viewBox="0 0 35 35" fill="none" xmlns="http://www.w3.org/2000/svg">
<circle cx="17.5" cy="17.5" r="17.5" fill="#00BFF3"/>
<g clip-path="url(#clip0)">
<path d="M22.6666 17.0306C22.298 17.0306 22 17.3293 22 17.6973V23.0306C22 23.3979 21.7013 23.6973 21.3334 23.6973H12C11.632 23.6973 11.3334 23.3979 11.3334 23.0306V13.6973C11.3334 13.33 11.632 13.0306 12 13.0306H17.3334C17.702 13.0306 18 12.7319 18 12.364C18 11.996 17.702 11.6973 17.3334 11.6973H12C10.8973 11.6973 10 12.5946 10 13.6973V23.0306C10 24.1333 10.8973 25.0306 12 25.0306H21.3334C22.436 25.0306 23.3334 24.1333 23.3334 23.0306V17.6973C23.3334 17.3286 23.0353 17.0306 22.6666 17.0306Z" fill="white"/>
<path d="M16.2508 16.4236C16.2041 16.4702 16.1727 16.5295 16.1594 16.5935L15.6881 18.9509C15.6662 19.0602 15.7008 19.1729 15.7794 19.2522C15.8428 19.3156 15.9281 19.3495 16.0155 19.3495C16.0368 19.3495 16.0589 19.3475 16.0808 19.3429L18.4375 18.8716C18.5028 18.8582 18.5622 18.8269 18.6082 18.7802L23.8828 13.5055L21.5261 11.1489L16.2508 16.4236Z" fill="white"/>
<path d="M25.5117 9.51877C24.8618 8.86874 23.8044 8.86874 23.155 9.51877L22.2324 10.4414L24.5891 12.7981L25.5117 11.8753C25.8264 11.5614 25.9998 11.1427 25.9998 10.6974C25.9998 10.252 25.8264 9.83334 25.5117 9.51877Z" fill="white"/>
</g>
<defs>
<clipPath id="clip0">
<rect width="16" height="16" fill="white" transform="translate(10 9)"/>
</clipPath>
</defs>
</svg>
