<svg width="110" height="109" viewBox="0 0 110 109" fill="none" xmlns="http://www.w3.org/2000/svg">
<g filter="url(#filter0_d)">
<circle cx="54.9894" cy="50.5" r="43.5" fill="white"/>
</g>
<path d="M55.9149 69.9363C66.5967 69.9363 73.6925 62.4383 73.6925 51.8551C73.6925 50.6433 73.5666 49.7079 73.3914 48.775H55.9173V55.1377H66.424C65.9945 57.8402 63.2426 63.117 55.9173 63.117C49.6064 63.117 44.4531 57.8896 44.4531 51.4257C44.4531 44.9618 49.604 39.7319 55.9173 39.7319C59.5282 39.7319 61.9271 41.272 63.292 42.585L68.317 37.7624C65.0813 34.734 60.9152 32.915 55.9149 32.915C45.6871 32.915 37.4042 41.1979 37.4042 51.4257C37.4042 61.6534 45.6871 69.9363 55.9149 69.9363Z" fill="#F95A4B"/>
<defs>
<filter id="filter0_d" x="0.489365" y="0" width="109" height="109" filterUnits="userSpaceOnUse" color-interpolation-filters="sRGB">
<feFlood flood-opacity="0" result="BackgroundImageFix"/>
<feColorMatrix in="SourceAlpha" type="matrix" values="0 0 0 0 0 0 0 0 0 0 0 0 0 0 0 0 0 0 127 0"/>
<feOffset dy="4"/>
<feGaussianBlur stdDeviation="5.5"/>
<feColorMatrix type="matrix" values="0 0 0 0 0 0 0 0 0 0 0 0 0 0 0 0 0 0 0.1 0"/>
<feBlend mode="normal" in2="BackgroundImageFix" result="effect1_dropShadow"/>
<feBlend mode="normal" in="SourceGraphic" in2="effect1_dropShadow" result="shape"/>
</filter>
</defs>
</svg>
