<svg width="18" height="26" viewBox="0 0 18 26" fill="none" xmlns="http://www.w3.org/2000/svg">
<path d="M9.33319 0C4.55447 0 0.666504 3.88797 0.666504 8.66668C0.666504 10.1013 1.02517 11.5236 1.70701 12.7852L8.85925 25.7207C8.95446 25.8932 9.1359 26 9.33319 26C9.53047 26 9.71191 25.8932 9.80713 25.7207L16.962 12.781C17.6412 11.5236 17.9999 10.1012 17.9999 8.66663C17.9999 3.88796 14.1119 0 9.33319 0ZM9.33319 13C6.94383 13 4.99987 11.056 4.99987 8.66668C4.99987 6.27732 6.94383 4.33337 9.33319 4.33337C11.7225 4.33337 13.6665 6.27732 13.6665 8.66668C13.6665 11.056 11.7225 13 9.33319 13Z" fill="#00BFF3"/>
</svg>
