<svg width="20" height="21" viewBox="0 0 20 21" fill="none" xmlns="http://www.w3.org/2000/svg">
<path d="M19.9932 4.84531C19.8682 5.2099 19.6318 5.44062 19.212 5.47656V5.6849C19.212 6.65469 19.2151 7.62448 19.212 8.59479C19.2124 8.78706 19.1416 8.97267 19.0133 9.11588C18.885 9.25909 18.7083 9.34978 18.5171 9.37047C18.326 9.39116 18.1339 9.3404 17.978 9.22796C17.822 9.11552 17.7132 8.94935 17.6724 8.76146C17.6564 8.67844 17.6497 8.59388 17.6526 8.50937C17.6505 7.57187 17.6505 6.63437 17.6526 5.69687V5.47813H2.3401V5.68281C2.3401 9.38038 2.3401 13.0783 2.3401 16.7766C2.3401 17.7781 3.00156 18.4385 4.00677 18.4391C5.61458 18.4391 7.22239 18.4391 8.83021 18.4391C9.39531 18.4391 9.77292 18.9396 9.60833 19.4573C9.56183 19.6115 9.46759 19.747 9.33918 19.8443C9.21076 19.9415 9.0548 19.9955 8.89375 19.9984C7.16875 20.0021 5.44323 20.0312 3.71927 19.988C2.08594 19.9474 0.783333 18.5365 0.78125 16.8766C0.776736 13.179 0.776736 9.48108 0.78125 5.78281V5.47969C0.371354 5.44375 0.125 5.21562 0 4.84375V2.03125C0.0156354 1.99017 0.0290226 1.94827 0.0401036 1.90573C0.187499 1.21562 0.552604 0.672395 1.16823 0.328124C1.43385 0.179166 1.74115 0.106771 2.03125 0H17.9687C18.0098 0.0156354 18.0517 0.0290226 18.0943 0.0401036C18.7839 0.187499 19.3286 0.551041 19.6719 1.16823C19.8203 1.43437 19.8932 1.74115 20 2.03125L19.9932 4.84531ZM18.4307 3.90417C18.4307 3.3875 18.4307 2.8875 18.4307 2.38802C18.4276 1.8974 18.0984 1.5651 17.6099 1.56458C12.5321 1.56458 7.45434 1.56458 2.37656 1.56458C1.88594 1.56458 1.55938 1.89479 1.55677 2.3875C1.55677 2.84323 1.55677 3.29896 1.55677 3.75469C1.55677 3.80365 1.56614 3.85312 1.57135 3.90417H18.4307Z" fill="#00BFF3"/>
<path d="M19.9932 15.6656C19.9495 15.8281 19.9083 15.9916 19.8615 16.1531C19.1755 18.5067 16.9969 20.0635 14.5328 19.9552C12.137 19.851 10.076 18.0625 9.61354 15.6781C9.02708 12.6573 11.1812 9.76248 14.2557 9.44165C14.8979 9.37291 15.5473 9.42592 16.1698 9.5979C16.626 9.72342 16.8708 10.1187 16.762 10.5448C16.649 10.9844 16.2411 11.2271 15.7786 11.1057C14.026 10.6427 12.3479 11.4588 11.5776 12.8484C10.876 14.1125 10.8854 15.4005 11.6463 16.6302C12.4161 17.8719 13.5797 18.4614 15.0391 18.3854C16.7057 18.2984 18.0875 17.0734 18.4292 15.4276C18.5661 14.7687 19.2625 14.4953 19.7266 14.9286C19.8443 15.038 19.9057 15.2083 19.9932 15.3505V15.6656Z" fill="#00BFF3"/>
<path d="M14.8807 14.8365C15.7942 13.892 16.7078 12.9478 17.6213 12.0037C17.7661 11.8542 17.914 11.7073 18.0651 11.5646C18.3937 11.2521 18.863 11.2521 19.1708 11.5537C19.4786 11.8552 19.4901 12.3459 19.1625 12.6724C18.0298 13.8026 16.8923 14.9282 15.75 16.049C15.2 16.5855 14.3885 16.5745 13.8349 16.0422C13.4458 15.6677 13.0661 15.2834 12.689 14.8964C12.3734 14.5735 12.3713 14.1021 12.6724 13.7922C12.9734 13.4823 13.4599 13.4698 13.7901 13.7922C14.1203 14.1146 14.4469 14.4563 14.7745 14.7886L14.8807 14.8365Z" fill="#00BFF3"/>
<path d="M9.95937 7.03279C10.525 7.03279 11.0911 7.03279 11.6568 7.03279C12.1453 7.03279 12.4974 7.36717 12.4932 7.81821C12.4891 8.26925 12.1417 8.59425 11.6656 8.59477C10.5146 8.5972 9.36336 8.5972 8.21197 8.59477C8.10938 8.59532 8.00768 8.57565 7.91268 8.5369C7.81769 8.49814 7.73126 8.44106 7.65833 8.3689C7.58539 8.29674 7.52739 8.21092 7.48762 8.11634C7.44785 8.02177 7.4271 7.92028 7.42656 7.81769C7.42601 7.71509 7.44567 7.6134 7.48443 7.5184C7.52319 7.42341 7.58027 7.33697 7.65243 7.26404C7.72459 7.19111 7.81041 7.1331 7.90499 7.09334C7.99956 7.05357 8.10105 7.03282 8.20364 7.03227C8.78854 7.02915 9.37395 7.03279 9.95937 7.03279Z" fill="#00BFF3"/>
</svg>
