<svg width="21" height="22" viewBox="0 0 21 22" fill="none" xmlns="http://www.w3.org/2000/svg">
<path d="M14.3896 17.1702L13.2201 15.8474L12.2544 16.7013L14.348 19.0692L17.7391 15.5567L16.8117 14.6614L14.3896 17.1702Z" fill="#00BFF3"/>
<path d="M15.0493 11.401C14.9318 11.401 14.8153 11.4052 14.6996 11.4128L14.3259 5.01538H11.276V3.77143C11.276 1.69186 9.5841 0 7.50453 0C5.42497 0 3.73311 1.69186 3.73311 3.77143V5.01538H0.683174L0.00572647 16.6115C-0.0469964 17.5144 0.265731 18.374 0.886332 19.0319C1.50693 19.6898 2.3468 20.0521 3.25121 20.0521H10.9475C11.9201 21.2403 13.3976 22 15.0493 22C17.9715 22 20.3488 19.6227 20.3488 16.7005C20.3488 13.7783 17.9715 11.401 15.0493 11.401V11.401ZM5.02213 3.77143C5.02213 2.40265 6.13572 1.28907 7.50449 1.28907C8.87327 1.28907 9.98689 2.40265 9.98689 3.77143V5.01538H5.02213V3.77143ZM3.25121 18.7631C2.70542 18.7631 2.19856 18.5444 1.82404 18.1474C1.44953 17.7503 1.26081 17.2316 1.2926 16.6867L1.89911 6.30449H3.73307V7.9196H5.02213V6.30449H9.98689V7.9196H11.276V6.30449H13.1099L13.4226 11.6568C11.2939 12.345 9.74983 14.3457 9.74983 16.7006C9.74983 17.4318 9.89872 18.1288 10.1677 18.7631H3.25121V18.7631ZM15.0493 20.7109C12.838 20.7109 11.0389 18.9119 11.0389 16.7005C11.0389 14.4891 12.838 12.6901 15.0493 12.6901C17.2607 12.6901 19.0597 14.4891 19.0597 16.7005C19.0597 18.9119 17.2607 20.7109 15.0493 20.7109V20.7109Z" fill="#00BFF3"/>
</svg>
