<svg width="27" height="27" viewBox="0 0 27 27" fill="none" xmlns="http://www.w3.org/2000/svg">
<path d="M11.2342 5.39592L13.101 5.46566L17.5054 9.86376L17.3704 10.6448C17.3562 10.7276 17.3655 10.8126 17.3971 10.8904C17.4288 10.9682 17.4815 11.0355 17.5494 11.0849C17.6174 11.1342 17.6977 11.1635 17.7815 11.1696C17.8652 11.1756 17.949 11.1581 18.0233 11.1191L18.506 10.8653L22.0826 14.4441C22.1674 14.526 22.2811 14.5714 22.399 14.5704C22.517 14.5693 22.6299 14.522 22.7133 14.4386C22.7967 14.3552 22.844 14.2423 22.845 14.1244C22.8461 14.0064 22.8007 13.8927 22.7188 13.8079L19.3393 10.4284L21.1498 9.47502L24.2773 11.1191C24.3516 11.1579 24.4353 11.1752 24.5188 11.169C24.6024 11.1629 24.6826 11.1335 24.7504 11.0842C24.8182 11.0349 24.8708 10.9676 24.9024 10.89C24.934 10.8124 24.9433 10.7275 24.9293 10.6448L24.3322 7.16236L26.864 4.69628C26.9242 4.63769 26.9667 4.56343 26.9869 4.48191C27.007 4.40039 27.0039 4.31486 26.978 4.23499C26.9521 4.15512 26.9043 4.0841 26.8401 4.02997C26.7759 3.97584 26.6978 3.94076 26.6147 3.92869L22.8839 3.38877C22.8251 3.37946 22.765 3.38193 22.7071 3.39602C22.6492 3.41011 22.5948 3.43555 22.5468 3.47086C22.4988 3.50617 22.4584 3.55066 22.4277 3.60173C22.3971 3.6528 22.3769 3.70945 22.3683 3.76838C22.3598 3.82731 22.363 3.88737 22.3778 3.94505C22.3926 4.00274 22.4187 4.05691 22.4546 4.10442C22.4905 4.15194 22.5355 4.19186 22.5869 4.22186C22.6384 4.25186 22.6953 4.27134 22.7543 4.27919L24.0735 4.47086L21.5998 5.02383V2.37912L21.7262 2.63513C21.7806 2.73944 21.8736 2.81831 21.9854 2.85485C22.0972 2.89139 22.2189 2.8827 22.3243 2.83064C22.4298 2.77859 22.5107 2.68729 22.5497 2.57632C22.5887 2.46535 22.5827 2.34353 22.5329 2.23694L21.5548 0.252284C21.5134 0.182135 21.4544 0.123995 21.3837 0.0836056C21.3129 0.043216 21.2329 0.0219727 21.1514 0.0219727C21.07 0.0219727 20.9899 0.043216 20.9192 0.0836056C20.8484 0.123995 20.7895 0.182135 20.7481 0.252284L19.1827 3.42072L15.6859 3.92869C15.6027 3.94076 15.5247 3.97584 15.4605 4.02997C15.3963 4.0841 15.3485 4.15512 15.3226 4.23499C15.2966 4.31486 15.2936 4.40039 15.3137 4.48191C15.3339 4.56343 15.3764 4.63769 15.4366 4.69628L17.9666 7.16236L17.6894 8.77807L13.6121 4.70437C13.5319 4.62422 13.4244 4.5773 13.3111 4.57299L11.2684 4.49651C11.2091 4.49348 11.1499 4.50236 11.0941 4.52261C11.0383 4.54286 10.9871 4.57408 10.9436 4.61442C10.9001 4.65476 10.8651 4.70341 10.8406 4.7575C10.8162 4.81158 10.8029 4.87001 10.8014 4.92934C10.7991 4.9884 10.8086 5.04732 10.8291 5.10273C10.8497 5.15815 10.8809 5.20897 10.9211 5.2523C10.9613 5.29563 11.0097 5.33061 11.0634 5.35526C11.1171 5.3799 11.1752 5.39372 11.2342 5.39592V5.39592ZM20.9406 8.5684L19.1296 9.52046L21.1498 6.41187L23.17 9.52046L21.3591 8.5684C21.2945 8.53451 21.2227 8.5168 21.1498 8.5168C21.077 8.5168 21.0052 8.53451 20.9406 8.5684V8.5684ZM23.4058 7.08362L23.6758 8.64714L21.8814 5.88545L25.0985 5.16331L23.5345 6.68318C23.4824 6.73416 23.4435 6.79704 23.421 6.86641C23.3986 6.93577 23.3934 7.00954 23.4058 7.08137V7.08362ZM19.5458 4.27559C19.6181 4.26517 19.6868 4.23732 19.7459 4.19445C19.805 4.15157 19.8527 4.09495 19.8851 4.02947L20.6999 2.37957V5.02383L18.2253 4.46861L19.5458 4.27559ZM17.2026 5.15971L20.4201 5.88185L18.6257 8.64489L18.8957 7.08137C18.908 7.00947 18.9026 6.93565 18.88 6.86628C18.8575 6.79692 18.8184 6.73408 18.7661 6.68318L17.2026 5.15971Z" fill="#00BFF3"/>
<path d="M23.992 15.0799C23.9077 14.9954 23.7932 14.9478 23.6737 14.9477C23.5543 14.9476 23.4397 14.9949 23.3552 15.0793C23.2706 15.1636 23.223 15.2781 23.2229 15.3976C23.2228 15.517 23.2701 15.6316 23.3545 15.7161L25.7022 18.0639C25.9546 18.3179 26.0962 18.6615 26.0962 19.0196C26.0962 19.3776 25.9546 19.7212 25.7022 19.9752L19.9746 25.7029C19.7207 25.9551 19.3773 26.0967 19.0194 26.0967C18.6615 26.0967 18.3181 25.9551 18.0642 25.7029L12.8512 20.4836L14.7158 18.6736C14.7759 18.615 14.8185 18.5407 14.8386 18.4592C14.8588 18.3777 14.8557 18.2921 14.8298 18.2123C14.8038 18.1324 14.7561 18.0614 14.6919 18.0073C14.6277 17.9531 14.5496 17.918 14.4665 17.906L9.88168 17.2396L7.83178 13.0831C7.79041 13.0129 7.73141 12.9546 7.66063 12.9142C7.58984 12.8737 7.50972 12.8524 7.42819 12.8524C7.34666 12.8524 7.26654 12.8737 7.19576 12.9142C7.12497 12.9546 7.06598 13.0129 7.0246 13.0831L6.50493 14.1355L5.47008 13.1007L5.29506 8.38943C5.54335 8.46092 5.79776 8.50912 6.05499 8.53341C6.19952 8.7607 6.39322 8.95266 6.62182 9.09512C6.85041 9.23758 7.10807 9.32692 7.37579 9.35654C7.64351 9.38617 7.91446 9.35532 8.16867 9.26627C8.42288 9.17723 8.65386 9.03226 8.84458 8.84206C9.05481 8.63262 9.20998 8.37444 9.29629 8.09052C9.3826 7.80659 9.39736 7.50573 9.33926 7.21473C9.28116 6.92372 9.152 6.65159 8.96329 6.42257C8.77458 6.19356 8.53216 6.01476 8.25763 5.9021C7.98309 5.78943 7.68496 5.74641 7.38978 5.77684C7.09459 5.80727 6.81151 5.91023 6.56574 6.07654C6.31997 6.24284 6.11913 6.46734 5.98112 6.73005C5.8431 6.99275 5.77219 7.28551 5.77469 7.58225C5.60008 7.54453 5.42813 7.49538 5.25996 7.43512L5.17582 5.1715L9.44254 5.32898C9.50187 5.33245 9.56129 5.32387 9.61721 5.30378C9.67314 5.28368 9.72442 5.25247 9.76797 5.21203C9.81152 5.17159 9.84644 5.12276 9.87062 5.06847C9.8948 5.01419 9.90774 4.95557 9.90867 4.89614C9.9109 4.83709 9.90147 4.77817 9.88092 4.72275C9.86037 4.66734 9.82911 4.61651 9.78892 4.57319C9.74872 4.52986 9.70038 4.49487 9.64667 4.47023C9.59295 4.44559 9.5349 4.43177 9.47584 4.42956L8.03965 4.37692C7.63547 3.54058 7.09097 2.77968 6.42979 2.12725C5.57 1.23316 4.50446 0.563062 3.32615 0.175444C2.18152 -0.161106 1.21371 -0.0103787 0.602703 0.601081C-0.0083068 1.21254 -0.162184 2.17945 0.177066 3.32453C0.564887 4.50161 1.23464 5.56602 2.12798 6.42502C2.78056 7.08625 3.54142 7.63103 4.37764 8.03578L4.57381 13.309C4.57769 13.4225 4.62467 13.5303 4.70519 13.6105L6.08244 14.9877L4.972 17.2374L0.388084 17.9037C0.304445 17.9153 0.225759 17.9502 0.161025 18.0045C0.0962915 18.0587 0.0481224 18.13 0.0220259 18.2103C-0.00407064 18.2906 -0.00704122 18.3767 0.0134538 18.4586C0.0339487 18.5405 0.077082 18.615 0.137922 18.6736L2.55811 21.033C2.64361 21.1165 2.75879 21.1627 2.87832 21.1613C2.99784 21.1599 3.11191 21.1111 3.19544 21.0256C3.27897 20.9401 3.32512 20.8249 3.32373 20.7054C3.32233 20.5859 3.27352 20.4718 3.18802 20.3883L1.90481 19.1361L6.69705 20.2119L3.92906 24.4714L4.38349 21.824C4.40366 21.7063 4.37626 21.5855 4.30732 21.488C4.23838 21.3906 4.13356 21.3245 4.0159 21.3043C3.89824 21.2841 3.77739 21.3115 3.67993 21.3805C3.58247 21.4494 3.51639 21.5543 3.49622 21.6719L2.6733 26.4714C2.65912 26.5541 2.66837 26.6392 2.70001 26.7169C2.73165 26.7947 2.78442 26.862 2.85234 26.9114C2.92026 26.9607 3.00063 26.9901 3.08436 26.9961C3.16809 27.0021 3.25184 26.9846 3.32615 26.9456L7.42684 24.79L11.5275 26.9456C11.6018 26.9846 11.6856 27.0021 11.7693 26.9961C11.8531 26.9901 11.9334 26.9607 12.0013 26.9114C12.0693 26.862 12.122 26.7947 12.1537 26.7169C12.1853 26.6392 12.1946 26.5541 12.1804 26.4714L11.3975 21.905L12.2074 21.114L17.4311 26.3404C17.8541 26.7605 18.426 26.9962 19.0221 26.9962C19.6182 26.9962 20.1901 26.7605 20.613 26.3404L26.3407 20.6128C26.761 20.1898 26.9969 19.6177 26.9969 19.0214C26.9969 18.425 26.761 17.8529 26.3407 17.4299L23.992 15.0799ZM8.20523 8.20361C8.08037 8.32837 7.92158 8.41366 7.74862 8.44886C7.57565 8.48406 7.39616 8.46762 7.23247 8.40158C7.50269 8.30676 7.74812 8.15239 7.95062 7.9499C8.15311 7.7474 8.30748 7.50197 8.4023 7.23175C8.46826 7.39524 8.48474 7.5745 8.44971 7.74727C8.41467 7.92005 8.32966 8.07873 8.20523 8.20361V8.20361ZM6.93191 6.93029C7.01539 6.84667 7.11457 6.78037 7.22375 6.73519C7.33293 6.69002 7.44996 6.66688 7.56812 6.66708C7.58612 6.66708 7.60367 6.67113 7.62166 6.67248C7.59502 6.91473 7.48665 7.14067 7.31441 7.31308C7.14216 7.48549 6.91632 7.59407 6.6741 7.62094C6.6655 7.49411 6.68405 7.3669 6.72851 7.24781C6.77296 7.12871 6.84231 7.02047 6.93191 6.93029ZM2.76418 5.78881C1.97711 5.03647 1.38544 4.10349 1.04049 3.07076C0.804273 2.26808 0.876712 1.59993 1.23891 1.23729C1.6011 0.87464 2.26971 0.802651 3.07239 1.03887C4.10511 1.38382 5.03809 1.97548 5.79043 2.76256C6.26184 3.23268 6.67019 3.76203 7.00525 4.33733L4.72004 4.25319C4.65816 4.25042 4.59638 4.26069 4.53871 4.28332C4.48105 4.30596 4.42878 4.34045 4.38529 4.38457C4.34155 4.42834 4.30731 4.48065 4.2847 4.53825C4.2621 4.59585 4.25162 4.65749 4.25391 4.71932L4.33895 7.00498C3.76354 6.66955 3.23418 6.26073 2.76418 5.78881V5.78881ZM9.51723 18.094L11.9248 18.4436L7.87543 19.3525V15.2091L9.17708 17.8466C9.20933 17.9124 9.25717 17.9694 9.31646 18.0125C9.37574 18.0556 9.44466 18.0836 9.51723 18.094V18.094ZM2.92751 18.4441L5.3351 18.094C5.40729 18.0836 5.47586 18.0557 5.53488 18.0128C5.5939 17.9699 5.64161 17.9133 5.6739 17.8479L6.97691 15.2091V19.353L2.92751 18.4441ZM7.21627 23.8833L4.43208 25.347L7.42684 20.7405L10.4202 25.347L7.63606 23.8833C7.5716 23.8492 7.49977 23.8314 7.42684 23.8314C7.35391 23.8314 7.28208 23.8492 7.21762 23.8833H7.21627ZM10.4702 21.8231L10.9242 24.4705L8.15663 20.211L12.9489 19.1352L10.5998 21.4249C10.5475 21.4758 10.5084 21.5386 10.4858 21.608C10.4633 21.6774 10.4579 21.7512 10.4702 21.8231V21.8231Z" fill="#00BFF3"/>
<path d="M11.4569 11.4552C11.7172 11.4423 11.9681 11.354 12.1793 11.2013C12.3904 11.0485 12.5526 10.8377 12.6463 10.5945C12.7399 10.3513 12.761 10.0861 12.7069 9.83117C12.6528 9.57624 12.5258 9.34249 12.3415 9.1583L11.7048 8.52209C11.6188 8.4408 11.505 8.39551 11.3867 8.39551C11.2684 8.39551 11.1546 8.4408 11.0686 8.52209L8.52334 11.0669C8.43899 11.1513 8.3916 11.2657 8.3916 11.385C8.3916 11.5043 8.43899 11.6187 8.52334 11.7031L9.15999 12.3398C9.34379 12.5252 9.57759 12.653 9.83285 12.7077C10.0881 12.7624 10.3538 12.7415 10.5974 12.6477C10.841 12.5539 11.052 12.3912 11.2046 12.1794C11.3573 11.9676 11.4449 11.716 11.4569 11.4552V11.4552ZM11.3867 9.4755L11.7053 9.7936C11.7896 9.87803 11.837 9.99251 11.837 10.1119C11.8369 10.2312 11.7895 10.3457 11.705 10.43C11.6206 10.5144 11.5061 10.5618 11.3868 10.5617C11.2674 10.5617 11.153 10.5142 11.0686 10.4298L10.7505 10.1117L11.3867 9.4755ZM10.4324 11.7027C10.348 11.787 10.2336 11.8344 10.1143 11.8344C9.99499 11.8344 9.88057 11.787 9.7962 11.7027L9.47809 11.3841L10.1143 10.7479L10.4324 11.066C10.4744 11.1078 10.5077 11.1575 10.5304 11.2122C10.5531 11.2669 10.5648 11.3256 10.5648 11.3848C10.5648 11.444 10.5531 11.5027 10.5304 11.5574C10.5077 11.6121 10.4744 11.6618 10.4324 11.7036V11.7027Z" fill="#00BFF3"/>
<path d="M12.3415 14.8851C12.2985 14.9266 12.2642 14.9763 12.2406 15.0312C12.2171 15.0861 12.2046 15.1451 12.2041 15.2048C12.2036 15.2646 12.215 15.3238 12.2376 15.3791C12.2602 15.4344 12.2936 15.4847 12.3359 15.5269C12.3781 15.5691 12.4284 15.6026 12.4837 15.6252C12.539 15.6478 12.5982 15.6592 12.6579 15.6587C12.7177 15.6581 12.7767 15.6457 12.8316 15.6222C12.8865 15.5986 12.9362 15.5643 12.9777 15.5213L13.6143 14.8851C13.849 14.6487 13.9872 14.3333 14.0022 14.0005C14.262 13.9872 14.5124 13.8989 14.7231 13.7462C14.9338 13.5935 15.0957 13.3831 15.1893 13.1403C15.2828 12.8976 15.3041 12.6329 15.2504 12.3783C15.1967 12.1237 15.0704 11.8902 14.8867 11.7059L14.2501 11.0692C14.1657 10.9849 14.0513 10.9375 13.932 10.9375C13.8127 10.9375 13.6983 10.9849 13.6139 11.0692L11.0686 13.615C11.0256 13.6565 10.9914 13.7061 10.9678 13.761C10.9442 13.8159 10.9318 13.8749 10.9313 13.9347C10.9307 13.9944 10.9421 14.0537 10.9647 14.109C10.9874 14.1643 11.0208 14.2145 11.063 14.2567C11.1053 14.299 11.1555 14.3324 11.2108 14.355C11.2661 14.3776 11.3253 14.389 11.3851 14.3885C11.4448 14.388 11.5039 14.3756 11.5588 14.352C11.6137 14.3284 11.6633 14.2941 11.7048 14.2512L12.6596 13.2964L12.9777 13.615C13.062 13.6993 13.1094 13.8138 13.1094 13.9331C13.1094 14.0524 13.062 14.1668 12.9777 14.2512L12.3415 14.8851ZM13.932 12.0217L14.2501 12.3398C14.332 12.4247 14.3774 12.5384 14.3764 12.6563C14.3753 12.7743 14.328 12.8871 14.2446 12.9706C14.1612 13.054 14.0483 13.1013 13.9304 13.1023C13.8124 13.1034 13.6987 13.058 13.6139 12.9761L13.2958 12.6579L13.932 12.0217Z" fill="#00BFF3"/>
<path d="M14.8867 17.4304C14.8438 17.4719 14.8095 17.5215 14.7859 17.5764C14.7623 17.6313 14.7499 17.6904 14.7494 17.7501C14.7489 17.8099 14.7603 17.8691 14.7829 17.9244C14.8055 17.9797 14.8389 18.0299 14.8812 18.0722C14.9234 18.1144 14.9736 18.1478 15.0289 18.1705C15.0842 18.1931 15.1435 18.2045 15.2032 18.2039C15.263 18.2034 15.322 18.191 15.3769 18.1674C15.4318 18.1438 15.4814 18.1096 15.5229 18.0666L17.4316 16.1575C17.6846 15.9044 17.8268 15.5611 17.8268 15.2032C17.8268 14.8453 17.6846 14.502 17.4316 14.2489C17.1745 14.0033 16.8326 13.8662 16.477 13.8662C16.1215 13.8662 15.7796 14.0033 15.5225 14.2489L13.6134 16.1575C13.5315 16.2424 13.4861 16.356 13.4871 16.474C13.4882 16.592 13.5355 16.7048 13.6189 16.7883C13.7023 16.8717 13.8152 16.919 13.9331 16.92C14.0511 16.921 14.1648 16.8757 14.2496 16.7937L15.2048 15.839L15.8406 16.4756L14.8867 17.4304ZM15.841 15.2032L16.1596 14.8851C16.2452 14.8032 16.359 14.7576 16.4775 14.7576C16.5959 14.7576 16.7098 14.8032 16.7954 14.8851C16.8797 14.9695 16.9271 15.0839 16.9271 15.2032C16.9271 15.3225 16.8797 15.437 16.7954 15.5213L16.4772 15.8394L15.841 15.2032Z" fill="#00BFF3"/>
<path d="M17.5134 20.6762C17.5996 20.7296 17.7013 20.7522 17.802 20.7405C17.9027 20.7289 17.9965 20.6835 18.0682 20.6119L20.6134 18.0666C20.6954 17.9818 20.7408 17.8681 20.7397 17.7501C20.7387 17.6322 20.6914 17.5193 20.608 17.4359C20.5245 17.3525 20.4117 17.3051 20.2937 17.3041C20.1758 17.3031 20.0621 17.3484 19.9772 17.4304L18.7795 18.6286L19.4495 16.6192C19.4817 16.523 19.4804 16.4187 19.446 16.3233C19.4115 16.2279 19.3457 16.147 19.2595 16.0936C19.1732 16.0403 19.0714 16.0176 18.9706 16.0294C18.8699 16.0412 18.776 16.0866 18.7044 16.1584L16.1591 18.7037C16.0771 18.7886 16.0318 18.9022 16.0328 19.0202C16.0338 19.1382 16.0812 19.251 16.1646 19.3344C16.248 19.4179 16.3609 19.4652 16.4788 19.4662C16.5968 19.4672 16.7105 19.4219 16.7953 19.3399L17.993 18.1422L17.3231 20.1521C17.2912 20.2481 17.2927 20.3521 17.3272 20.4472C17.3618 20.5423 17.4274 20.623 17.5134 20.6762V20.6762Z" fill="#00BFF3"/>
<path d="M19.3406 22.5205C19.4659 22.6458 19.6147 22.7453 19.7785 22.8131C19.9423 22.881 20.1178 22.9159 20.2951 22.9159C20.4724 22.9159 20.6479 22.881 20.8117 22.8131C20.9755 22.7453 21.1243 22.6458 21.2496 22.5205L22.5221 21.2481C22.7751 20.9949 22.9173 20.6517 22.9173 20.2937C22.9173 19.9358 22.7751 19.5926 22.5221 19.3394L21.8858 18.7028C21.8015 18.6184 21.687 18.571 21.5677 18.571C21.4484 18.571 21.334 18.6184 21.2496 18.7028L18.7044 21.2481C18.62 21.3324 18.5726 21.4468 18.5726 21.5662C18.5726 21.6855 18.62 21.7999 18.7044 21.8843L19.3406 22.5205ZM21.5677 19.6571L21.8858 19.9756C21.9702 20.06 22.0176 20.1744 22.0176 20.2937C22.0176 20.4131 21.9702 20.5275 21.8858 20.6118L20.6134 21.8843C20.5291 21.9686 20.4146 22.016 20.2953 22.016C20.176 22.016 20.0616 21.9686 19.9772 21.8843L19.6587 21.5662L21.5677 19.6571Z" fill="#00BFF3"/>
</svg>
