<svg width="26" height="28" viewBox="0 0 26 28" fill="none" xmlns="http://www.w3.org/2000/svg">
<path d="M25.6008 1.32599H20.1734V0.399043C20.1734 0.178665 19.9948 0 19.7744 0H6.03555C5.81512 0 5.63651 0.178665 5.63651 0.399043V1.32599H0.39915C0.181538 1.32599 0 1.50796 0 1.72509L0.000106404 12.1961C0.000106404 12.4165 0.178718 12.5951 0.39915 12.5951H5.63656V15.5086C5.63656 15.729 5.81518 15.9076 6.03561 15.9076H7.25343C7.17527 16.0583 7.12271 16.2251 7.10228 16.4028L6.57761 20.9456C6.56288 21.0741 6.55591 21.2044 6.55692 21.3298C6.55692 22.3541 7.07785 23.1977 7.83135 23.8464C8.27419 24.2277 8.71702 24.6089 9.15985 24.9902V26.8423C9.15985 27.0627 9.33846 27.2413 9.55889 27.2413H10.7867C11.0071 27.2413 11.1857 27.0627 11.1857 26.8423C11.1857 26.6219 11.0071 26.4433 10.7867 26.4433H9.95793V24.8071C9.95793 24.6909 9.90728 24.5805 9.81928 24.5047C9.38246 24.1286 8.94564 23.7525 8.50882 23.3765C7.8686 22.8253 7.3715 22.2222 7.355 21.3235C7.35431 21.2284 7.35958 21.132 7.37049 21.0371L7.89515 16.4942C7.93191 16.1743 8.203 15.933 8.52564 15.933C8.73724 15.933 8.91404 16.0491 9.00119 16.1486C9.14442 16.3121 9.1599 16.4958 9.1599 16.5671V19.9312C9.1599 20.1516 9.33851 20.3302 9.55894 20.3302C9.77938 20.3302 9.95799 20.1516 9.95799 19.9312V9.11845C9.95799 8.76873 10.2425 8.48424 10.5922 8.48424C10.9409 8.48424 11.2245 8.76708 11.2263 9.11532C11.2263 9.11633 11.2261 9.11728 11.2261 9.1183C11.2261 9.12037 11.2264 9.12239 11.2265 9.12447V14.1692C11.2265 14.7787 12.0286 14.7772 12.0277 14.1741C12.0276 14.0874 12.0273 13.8324 12.0292 13.7662C12.1004 12.9545 13.4612 12.9738 13.4612 13.8079V14.4124C13.4612 14.927 14.2593 14.927 14.2593 14.4124C14.2594 14.0622 14.5442 13.7773 14.8945 13.7773C15.2911 13.7773 15.6929 13.9492 15.6929 14.4124V14.8056C15.6929 15.315 16.4819 15.3236 16.4909 14.8126C16.4923 14.7294 16.4967 14.7108 16.5112 14.6495C16.6713 14.0249 17.5963 14.022 17.7585 14.6464L18.2509 16.5428C18.6068 17.915 18.5925 19.3615 18.2093 20.7261L17.0937 24.6993C17.0838 24.7344 17.0789 24.7707 17.0789 24.8071V26.4433H12.6971C12.4767 26.4433 12.2981 26.6219 12.2981 26.8423C12.2981 27.0627 12.4767 27.2413 12.6971 27.2413H17.4779C17.6984 27.2413 17.877 27.0627 17.877 26.8423V24.8621L18.9777 20.9418C19.399 19.4415 19.4148 17.851 19.0234 16.3423L18.9105 15.9076H19.7746C19.995 15.9076 20.1736 15.7289 20.1736 15.5085V3.74249H25.2019V11.797H21.6506C21.4302 11.797 21.2515 11.9757 21.2515 12.1961C21.2515 12.4165 21.4302 12.5951 21.6506 12.5951H25.601C25.8214 12.5951 26 12.4165 26 12.1961V1.72509V1.72504C25.9998 1.50466 25.8212 1.32599 25.6008 1.32599V1.32599ZM0.798193 2.12413H5.63656V2.94441H0.798193V2.12413ZM6.43486 0.798246H19.3752V2.94441H6.43486V0.798246ZM0.798193 11.797V3.74249H5.63656V11.797H0.798193ZM18.7032 15.1095L18.5309 14.4457C18.2789 13.4761 17.0796 13.0561 16.274 13.6534C15.8374 12.9567 14.8134 12.7651 14.1264 13.2027C13.7704 12.4371 12.7649 12.1535 12.0244 12.5259V9.51729H15.6545C15.8675 9.51729 16.0408 9.69084 16.0408 9.90414V10.6707C16.0408 10.8837 15.8675 11.057 15.6545 11.057H13.4703C13.2499 11.057 13.0713 11.2356 13.0713 11.456C13.0713 11.6764 13.2499 11.855 13.4703 11.855H15.6545C16.3075 11.855 16.8389 11.3237 16.8389 10.6707V9.90414C16.8389 9.25078 16.3076 8.7192 15.6545 8.7192H11.9674C11.7941 8.12313 11.2433 7.6861 10.5921 7.6861C9.80231 7.6861 9.15979 8.32867 9.15979 9.1184V15.1095H6.4346V3.74249H19.3754V15.1095H18.7032ZM20.1734 2.94441V2.12413H25.2018V2.94441H20.1734Z" fill="#00BFF3"/>
<path d="M15.2187 1.4917H10.5914C10.371 1.4917 10.1924 1.67036 10.1924 1.89074C10.1924 2.11112 10.371 2.28979 10.5914 2.28979H15.2187C15.4391 2.28979 15.6177 2.11112 15.6177 1.89074C15.6177 1.67036 15.4391 1.4917 15.2187 1.4917Z" fill="#00BFF3"/>
<path d="M11.2613 4.5083H8.11047C7.89004 4.5083 7.71143 4.68697 7.71143 4.90734V6.72985C7.71143 6.95023 7.89004 7.1289 8.11047 7.1289H11.2613C11.4817 7.1289 11.6604 6.95023 11.6604 6.72985V4.90734C11.6604 4.68697 11.4817 4.5083 11.2613 4.5083V4.5083ZM10.8623 6.33081H8.50951V5.30639H10.8623V6.33081Z" fill="#00BFF3"/>
<path d="M21.3722 6.63622H23.7427C23.9632 6.63622 24.1418 6.45756 24.1418 6.23718C24.1418 6.0168 23.9632 5.83813 23.7427 5.83813H21.3722C21.1518 5.83813 20.9732 6.0168 20.9732 6.23718C20.9732 6.45756 21.1519 6.63622 21.3722 6.63622Z" fill="#00BFF3"/>
<path d="M23.7427 8.35277C23.9632 8.35277 24.1418 8.17411 24.1418 7.95373C24.1418 7.73335 23.9632 7.55469 23.7427 7.55469H21.3722C21.1518 7.55469 20.9732 7.73335 20.9732 7.95373C20.9732 8.17411 21.1518 8.35277 21.3722 8.35277H23.7427Z" fill="#00BFF3"/>
<path d="M2.00967 6.63622H4.38009C4.60052 6.63622 4.77913 6.45756 4.77913 6.23718C4.77913 6.0168 4.60052 5.83813 4.38009 5.83813H2.00967C1.78924 5.83813 1.61063 6.0168 1.61063 6.23718C1.61063 6.45756 1.78929 6.63622 2.00967 6.63622Z" fill="#00BFF3"/>
<path d="M4.38009 7.55469H2.00967C1.78924 7.55469 1.61063 7.73335 1.61063 7.95373C1.61063 8.17411 1.78924 8.35277 2.00967 8.35277H4.38009C4.60052 8.35277 4.77913 8.17411 4.77913 7.95373C4.77913 7.73335 4.60052 7.55469 4.38009 7.55469Z" fill="#00BFF3"/>
<path d="M17.4777 5.41968H13.2444C13.024 5.41968 12.8454 5.59834 12.8454 5.81872C12.8454 6.0391 13.024 6.21776 13.2444 6.21776H17.4777C17.6981 6.21776 17.8767 6.0391 17.8767 5.81872C17.8767 5.59834 17.6981 5.41968 17.4777 5.41968Z" fill="#00BFF3"/>
</svg>
