<svg width="28" height="28" viewBox="0 0 28 28" fill="none" xmlns="http://www.w3.org/2000/svg">
<path d="M14.5437 15.604C15.0247 15.3362 15.3548 14.8277 15.3548 14.2365C15.3548 13.64 15.0234 13.1034 14.4895 12.8365L9.73632 10.4597C9.13026 10.1567 8.46006 9.98821 7.784 9.95118C8.54677 9.28821 9.03226 8.31363 9.03226 7.2257C9.03226 5.23363 7.41142 3.61279 5.41935 3.61279C3.42729 3.61279 1.80645 5.23363 1.80645 7.2257C1.80645 8.36286 2.33574 9.37763 3.15994 10.0406C1.35303 10.4534 0 12.0701 0 13.9999V18.516C0 19.7611 1.01297 20.7741 2.25806 20.7741V26.1934C2.25806 27.1897 3.06826 27.9999 4.06452 27.9999C4.6069 27.9999 5.08787 27.7551 5.41935 27.3758C5.75084 27.7551 6.23181 27.9999 6.77419 27.9999C7.77045 27.9999 8.58064 27.1897 8.58064 26.1934V13.593L13.1415 15.6659C13.3054 15.7409 13.4802 15.7774 13.6581 15.7923L15.6922 22.7083C15.2279 22.9233 14.9032 23.3907 14.9032 23.9354C14.9032 24.4769 15.2248 24.9416 15.685 25.1583C15.4786 25.4519 15.3548 25.8078 15.3548 26.1934C15.3548 27.1897 16.165 27.9999 17.1613 27.9999C18.1575 27.9999 18.9677 27.1897 18.9677 26.1934C18.9677 25.8629 18.872 25.5571 18.7166 25.2902H23.7354C23.5796 25.5571 23.4839 25.8629 23.4839 26.1934C23.4839 27.1897 24.2941 27.9999 25.2903 27.9999C26.2866 27.9999 27.0968 27.1897 27.0968 26.1934C27.0968 25.1972 26.2866 24.387 25.2903 24.387H16.2581C16.0088 24.387 15.8065 24.1842 15.8065 23.9354C15.8065 23.6865 16.0088 23.4838 16.2581 23.4838H27.0074L27.9896 19.0656L28 18.0644H15.2677L14.5437 15.604ZM2.70968 7.2257C2.70968 5.73131 3.92497 4.51602 5.41935 4.51602C6.91374 4.51602 8.12903 5.73131 8.12903 7.2257C8.12903 8.72008 6.91374 9.93537 5.41935 9.93537C3.92497 9.93537 2.70968 8.72008 2.70968 7.2257ZM8.67864 12.6451H7.67742V26.1934C7.67742 26.6916 7.27232 27.0967 6.77419 27.0967C6.27606 27.0967 5.87097 26.6916 5.87097 26.1934V17.6128H4.96774V26.1934C4.96774 26.6916 4.56265 27.0967 4.06452 27.0967C3.56639 27.0967 3.16129 26.6916 3.16129 26.1934V13.0967H2.25806V19.8709C1.5111 19.8709 0.903226 19.263 0.903226 18.516V13.9999C0.903226 12.2567 2.32174 10.8386 4.06452 10.8386H7.51484C8.14258 10.8386 8.77077 10.9872 9.33213 11.2676L14.0854 13.6445C14.3112 13.7574 14.4516 13.9841 14.4516 14.2411C14.4516 14.606 14.1549 14.9031 13.7895 14.9031C13.6943 14.9031 13.6021 14.8832 13.5159 14.844L8.67864 12.6451ZM18.0645 26.1934C18.0645 26.6916 17.6594 27.0967 17.1613 27.0967C16.6632 27.0967 16.2581 26.6916 16.2581 26.1934C16.2581 25.6953 16.6632 25.2902 17.1613 25.2902C17.6594 25.2902 18.0645 25.6953 18.0645 26.1934ZM26.1935 26.1934C26.1935 26.6916 25.7885 27.0967 25.2903 27.0967C24.7922 27.0967 24.3871 26.6916 24.3871 26.1934C24.3871 25.6953 24.7922 25.2902 25.2903 25.2902C25.7885 25.2902 26.1935 25.6953 26.1935 26.1934ZM27.0859 18.9676L26.2834 22.5805H16.5963L15.5337 18.9676H27.0859Z" fill="#00BFF3"/>
<path d="M21.2258 11.7419C23.9649 11.7419 26.1936 9.51317 26.1936 6.77414C26.1936 4.03511 23.9649 1.8064 21.2258 1.8064C18.4868 1.8064 16.2581 4.03511 16.2581 6.77414C16.2581 9.51317 18.4868 11.7419 21.2258 11.7419ZM21.2258 2.70962C23.4672 2.70962 25.2903 4.53323 25.2903 6.77414C25.2903 9.01504 23.4672 10.8387 21.2258 10.8387C18.9845 10.8387 17.1613 9.01504 17.1613 6.77414C17.1613 4.53323 18.9845 2.70962 21.2258 2.70962Z" fill="#00BFF3"/>
<path d="M21.2258 8.12892C20.9765 8.12892 20.7742 7.92615 20.7742 7.67731H19.8709C19.8709 8.26531 20.2498 8.76208 20.7742 8.94905V9.93537H21.6774V9.03215H22.5806V7.67731C22.5806 6.93034 21.9727 6.32247 21.2258 6.32247C20.9765 6.32247 20.7742 6.1197 20.7742 5.87086V5.41924H21.2258C21.4751 5.41924 21.6774 5.62202 21.6774 5.87086H22.5806C22.5806 5.28286 22.2017 4.78608 21.6774 4.59912V3.61279H20.7742V4.51602H19.8709V5.87086C19.8709 6.61783 20.4788 7.2257 21.2258 7.2257C21.4751 7.2257 21.6774 7.42847 21.6774 7.67731V8.12892H21.2258Z" fill="#00BFF3"/>
<path d="M23.4838 6.32251H24.3871V7.22574H23.4838V6.32251Z" fill="#00BFF3"/>
<path d="M18.0645 6.32251H18.9677V7.22574H18.0645V6.32251Z" fill="#00BFF3"/>
<path d="M18.0645 12.7608V17.892L21.2258 16.3114L24.3871 17.892V12.7608C26.5332 11.6227 28 9.36781 28 6.77419C28 3.0389 24.9611 0 21.2258 0C17.4905 0 14.4516 3.0389 14.4516 6.77419C14.4516 9.36781 15.9185 11.6232 18.0645 12.7608ZM18.9678 13.1532C19.539 13.356 20.1442 13.4838 20.7742 13.5254V15.5269L18.9678 16.4301V13.1532ZM23.4839 16.4306L21.6774 15.5274V13.5258C22.3074 13.4838 22.9126 13.3565 23.4839 13.1537V16.4306ZM21.2258 0.903226C24.463 0.903226 27.0968 3.53703 27.0968 6.77419C27.0968 10.0114 24.463 12.6452 21.2258 12.6452C17.9887 12.6452 15.3549 10.0114 15.3549 6.77419C15.3549 3.53703 17.9887 0.903226 21.2258 0.903226Z" fill="#00BFF3"/>
<path d="M23.4838 19.8708H24.3871V21.6773H23.4838V19.8708Z" fill="#00BFF3"/>
<path d="M20.7742 19.8708H21.6774V21.6773H20.7742V19.8708Z" fill="#00BFF3"/>
<path d="M18.0645 19.8708H18.9677V21.6773H18.0645V19.8708Z" fill="#00BFF3"/>
</svg>
