<svg width="20" height="20" viewBox="0 0 20 20" fill="none" xmlns="http://www.w3.org/2000/svg">
<path d="M8.40001 12H4.00001C3.89392 12 3.79218 12.0421 3.71716 12.1172C3.64215 12.1922 3.60001 12.2939 3.60001 12.4C3.60001 12.5061 3.64215 12.6078 3.71716 12.6828C3.79218 12.7579 3.89392 12.8 4.00001 12.8H8.40001C8.50609 12.8 8.60783 12.7579 8.68285 12.6828C8.75786 12.6078 8.80001 12.5061 8.80001 12.4C8.80001 12.2939 8.75786 12.1922 8.68285 12.1172C8.60783 12.0421 8.50609 12 8.40001 12Z" fill="#00BFF3"/>
<path d="M15.6 10.8H10.8C10.6939 10.8 10.5922 10.8422 10.5172 10.9172C10.4421 10.9922 10.4 11.094 10.4 11.2V16C10.4 16.1061 10.4421 16.2079 10.5172 16.2829C10.5922 16.3579 10.6939 16.4 10.8 16.4H15.6C15.7061 16.4 15.8078 16.3579 15.8828 16.2829C15.9579 16.2079 16 16.1061 16 16V11.2C16 11.094 15.9579 10.9922 15.8828 10.9172C15.8078 10.8422 15.7061 10.8 15.6 10.8ZM15.2 15.6H11.2V11.6H15.2V15.6Z" fill="#00BFF3"/>
<path d="M20 7.6V6C19.9962 5.94453 19.9846 5.88986 19.9656 5.8376L18.5884 2.7384C18.9121 2.64531 19.1912 2.43838 19.3743 2.15573C19.5575 1.87308 19.6323 1.53376 19.585 1.2003C19.5377 0.866846 19.3715 0.561717 19.117 0.341142C18.8625 0.120568 18.5368 -0.000586954 18.2 2.13818e-06H1.8C1.4632 -0.000586954 1.13754 0.120568 0.883028 0.341142C0.628512 0.561717 0.462291 0.866846 0.414995 1.2003C0.367699 1.53376 0.442515 1.87308 0.625657 2.15573C0.808798 2.43838 1.08792 2.64531 1.4116 2.7384L0.0344 5.8376C0.0150808 5.88977 0.00349166 5.94448 0 6V7.6C0.00058181 8.06088 0.160036 8.50747 0.451487 8.8645C0.742938 9.22153 1.14856 9.46716 1.6 9.56V19.2H0.4C0.293913 19.2 0.192172 19.2421 0.117157 19.3172C0.0421427 19.3922 0 19.4939 0 19.6C0 19.7061 0.0421427 19.8078 0.117157 19.8828C0.192172 19.9579 0.293913 20 0.4 20H19.6C19.7061 20 19.8078 19.9579 19.8828 19.8828C19.9579 19.8078 20 19.7061 20 19.6C20 19.4939 19.9579 19.3922 19.8828 19.3172C19.8078 19.2421 19.7061 19.2 19.6 19.2H18.4V9.56C18.8514 9.46716 19.2571 9.22153 19.5485 8.8645C19.84 8.50747 19.9994 8.06088 20 7.6V7.6ZM1.2 1.4C1.2 1.24087 1.26321 1.08826 1.37574 0.975738C1.48826 0.863216 1.64087 0.800002 1.8 0.800002H18.2C18.3591 0.800002 18.5117 0.863216 18.6243 0.975738C18.7368 1.08826 18.8 1.24087 18.8 1.4C18.8 1.55913 18.7368 1.71174 18.6243 1.82427C18.5117 1.93679 18.3591 2 18.2 2H1.8C1.64087 2 1.48826 1.93679 1.37574 1.82427C1.26321 1.71174 1.2 1.55913 1.2 1.4ZM2.2596 2.8H17.7396L18.9836 5.6H1.0156L2.2596 2.8ZM16 6.4V7.6C16 7.91826 15.8736 8.22349 15.6485 8.44853C15.4235 8.67357 15.1183 8.8 14.8 8.8C14.4817 8.8 14.1765 8.67357 13.9515 8.44853C13.7264 8.22349 13.6 7.91826 13.6 7.6V6.4H16ZM12.8 6.4V7.6C12.8 7.91826 12.6736 8.22349 12.4485 8.44853C12.2235 8.67357 11.9183 8.8 11.6 8.8C11.2817 8.8 10.9765 8.67357 10.7515 8.44853C10.5264 8.22349 10.4 7.91826 10.4 7.6V6.4H12.8ZM9.6 6.4V7.6C9.6 7.91826 9.47357 8.22349 9.24853 8.44853C9.02348 8.67357 8.71826 8.8 8.4 8.8C8.08174 8.8 7.77651 8.67357 7.55147 8.44853C7.32643 8.22349 7.2 7.91826 7.2 7.6V6.4H9.6ZM6.4 6.4V7.6C6.4 7.91826 6.27357 8.22349 6.04853 8.44853C5.82348 8.67357 5.51826 8.8 5.2 8.8C4.88174 8.8 4.57652 8.67357 4.35147 8.44853C4.12643 8.22349 4 7.91826 4 7.6V6.4H6.4ZM0.8 7.6V6.4H3.2V7.6C3.2 7.91826 3.07357 8.22349 2.84853 8.44853C2.62348 8.67357 2.31826 8.8 2 8.8C1.68174 8.8 1.37652 8.67357 1.15147 8.44853C0.926428 8.22349 0.8 7.91826 0.8 7.6ZM8 19.2H4.4V14.8H8V19.2ZM17.6 19.2H8.8V14.4C8.8 14.2939 8.75786 14.1922 8.68284 14.1172C8.60783 14.0421 8.50609 14 8.4 14H4C3.89391 14 3.79217 14.0421 3.71716 14.1172C3.64214 14.1922 3.6 14.2939 3.6 14.4V19.2H2.4V9.56C2.8814 9.45917 3.30868 9.18429 3.6 8.788C3.78396 9.03977 4.02474 9.24457 4.30275 9.38576C4.58077 9.52694 4.88819 9.60053 5.2 9.60053C5.51181 9.60053 5.81923 9.52694 6.09724 9.38576C6.37526 9.24457 6.61604 9.03977 6.8 8.788C6.98396 9.03977 7.22474 9.24457 7.50275 9.38576C7.78077 9.52694 8.08819 9.60053 8.4 9.60053C8.71181 9.60053 9.01923 9.52694 9.29724 9.38576C9.57526 9.24457 9.81604 9.03977 10 8.788C10.184 9.03977 10.4247 9.24457 10.7028 9.38576C10.9808 9.52694 11.2882 9.60053 11.6 9.60053C11.9118 9.60053 12.2192 9.52694 12.4972 9.38576C12.7753 9.24457 13.016 9.03977 13.2 8.788C13.384 9.03977 13.6247 9.24457 13.9028 9.38576C14.1808 9.52694 14.4882 9.60053 14.8 9.60053C15.1118 9.60053 15.4192 9.52694 15.6972 9.38576C15.9753 9.24457 16.216 9.03977 16.4 8.788C16.6913 9.18429 17.1186 9.45917 17.6 9.56V19.2ZM18 8.8C17.6817 8.8 17.3765 8.67357 17.1515 8.44853C16.9264 8.22349 16.8 7.91826 16.8 7.6V6.4H19.2V7.6C19.2 7.91826 19.0736 8.22349 18.8485 8.44853C18.6235 8.67357 18.3183 8.8 18 8.8Z" fill="#00BFF3"/>
</svg>
