<svg width="29" height="29" viewBox="0 0 29 29" fill="none" xmlns="http://www.w3.org/2000/svg">
<path d="M29 12.1613H27.949L26.3824 12.9855C26.2061 12.8883 26.0227 12.8058 25.8249 12.7562L23.8544 12.2632V12.0391C24.7261 11.4307 25.2581 10.4255 25.2581 9.35484V8.5372C25.2581 6.72014 23.8343 5.19952 22.0844 5.14653C21.9955 5.14425 21.908 5.14745 21.8201 5.15178L22.331 3.95571L19.8541 1.47951L18.394 2.42984C17.8393 2.1174 17.2526 1.87417 16.6432 1.70356L16.2826 0H12.7179L12.3572 1.70401C11.7479 1.87462 11.1607 2.11786 10.6064 2.43029L9.14632 1.47996L6.67149 3.95479L7.17372 5.15178C7.15453 5.15087 7.13626 5.14745 7.11708 5.14699C6.22133 5.12095 5.37766 5.44778 4.7368 6.06991C4.09503 6.69159 3.74194 7.52589 3.74194 8.41935V9.35484C3.74194 10.4255 4.2734 11.4302 5.14516 12.0386V12.2632L3.85978 12.5845L1.52998 11.2258H0V20.918L4.60159 22.4516H5.49779L5.60971 22.0597L7.02024 22.9063C7.04331 23.6733 7.65836 24.2904 8.42461 24.3173C8.45156 25.0804 9.06478 25.6936 9.82783 25.7206C9.85478 26.4836 10.468 27.0968 11.2311 27.1238C11.2589 27.9046 11.8984 28.5323 12.6857 28.5323C12.978 28.5323 13.2646 28.4411 13.5056 28.2787L13.9199 28.6446C14.1796 28.8732 14.5139 29 14.8611 29H14.9476C15.726 29 16.3593 28.3708 16.3691 27.5949C17.139 27.5851 17.7625 26.9616 17.7724 26.1917C18.5427 26.1819 19.1667 25.5575 19.1756 24.7871C19.953 24.7689 20.5806 24.1337 20.5806 23.3519C20.5806 23.3049 20.5784 23.2585 20.5736 23.2117L29 18.9988V12.1613ZM24.3226 8.5372V9.35484C24.3226 10.185 23.874 10.9606 23.1519 11.3788L22.918 11.514L22.9198 12.9942L25.2567 13.578L20.1129 16.2853V15.0253C20.1129 14.3965 19.8589 13.8208 19.443 13.3953L21.0484 12.9942V11.5129L20.815 11.3779C20.0933 10.9606 19.6452 10.185 19.6452 9.35484V8.41935C19.6452 7.78146 19.8973 7.18491 20.3557 6.74069C20.8136 6.2967 21.4211 6.05735 22.0563 6.08202C23.3058 6.11947 24.3226 7.22099 24.3226 8.5372ZM15.2053 15.9176L13.0879 15.2409C12.1229 14.9317 11.0785 14.8855 10.0907 15.1043L9.82258 15.1637V15.0253C9.82258 14.3803 10.2599 13.8203 10.8853 13.6636L13.5645 12.9942V11.5129L13.3311 11.3779C12.6094 10.9606 12.1613 10.185 12.1613 9.35484V8.41935C12.1613 7.78146 12.4134 7.18491 12.8718 6.74069C13.3297 6.2967 13.9411 6.05735 14.5724 6.08202C15.8219 6.11947 16.8387 7.22099 16.8387 8.5372V9.35484C16.8387 10.185 16.3902 10.9606 15.668 11.3788L15.4341 11.514L15.4359 12.9942L18.1147 13.6636C18.7401 13.8203 19.1774 14.3803 19.1774 15.0253V16.778L19.0619 16.8387H18.7752L15.8996 16.017C15.673 15.9528 15.4396 15.9265 15.2053 15.9176V15.9176ZM9.92741 7.0006C10.8058 5.29864 12.5738 4.20968 14.5 4.20968C16.408 4.20968 18.1684 5.28402 19.0534 6.96291C18.8307 7.40942 18.7097 7.90388 18.7097 8.41935V9.35484C18.7097 10.4255 19.2411 11.4302 20.1129 12.0386V12.2632L18.2419 12.7316L16.3705 12.2632V12.0391C17.2423 11.4307 17.7742 10.4255 17.7742 9.35484V8.5372C17.7742 6.72014 16.3504 5.19952 14.6005 5.14653C13.7052 5.12027 12.8611 5.44732 12.2202 6.06945C11.5789 6.69159 11.2258 7.52589 11.2258 8.41935V9.35484C11.2258 10.4255 11.7573 11.4302 12.629 12.0386V12.2632L10.7581 12.7316L8.88664 12.2632V12.0391C9.7584 11.4307 10.2903 10.4255 10.2903 9.35484V8.5372C10.2903 7.98678 10.1579 7.46423 9.92741 7.0006V7.0006ZM7.77621 4.17176L9.27056 2.67741L10.5859 3.53342L10.8375 3.37902C11.4681 2.99259 12.1496 2.70961 12.8629 2.53901L13.1507 2.47003L13.4761 0.935484H15.5243L15.8489 2.46958L16.1366 2.53832C16.8499 2.70916 17.5314 2.99213 18.162 3.37857L18.4137 3.53296L19.729 2.67695L21.2215 4.16994L20.691 5.41215C20.3299 5.56745 19.9951 5.78602 19.7036 6.06854C19.6844 6.08727 19.668 6.10737 19.6493 6.12655C18.5473 4.3748 16.5991 3.27419 14.5 3.27419C12.3858 3.27419 10.4322 4.38508 9.33291 6.15464C9.03875 5.84677 8.68885 5.59737 8.30105 5.42311L7.77621 4.17176ZM6.08065 12.9942V11.5129L5.84723 11.3779C5.12552 10.9606 4.67742 10.185 4.67742 9.35484V8.41935C4.67742 7.78146 4.92956 7.18491 5.38794 6.74069C5.84586 6.2967 6.45475 6.05735 7.08853 6.08202C8.33805 6.11947 9.35484 7.22099 9.35484 8.5372V9.35484C9.35484 10.185 8.90628 10.9606 8.18411 11.3788L7.95024 11.514L7.95207 12.9942L9.55696 13.3953C9.14107 13.8208 8.8871 14.3965 8.8871 15.0253V15.3718L7.42814 15.6961L7.46606 15.5636L7.48387 14.6992L5.01703 13.2601L6.08065 12.9942ZM0.935484 12.1613H1.27647L4.64042 14.1234L2.94303 20.9127L0.935484 20.2433V12.1613ZM4.75324 21.5161L3.83261 21.2094L5.48158 14.6142L6.54839 15.2363V15.3699L4.79253 21.5161H4.75324ZM7.95161 22.8627C7.95161 22.7248 8.00734 22.5896 8.10509 22.4918L8.92729 21.6696C9.02504 21.5719 9.16025 21.5161 9.2982 21.5161C9.58734 21.5161 9.82258 21.7514 9.82258 22.0405C9.82258 22.1785 9.76685 22.3137 9.6691 22.4114L8.8469 23.2336C8.74915 23.3314 8.61394 23.3871 8.476 23.3871C8.18685 23.3871 7.95161 23.1519 7.95161 22.8627ZM9.35484 24.2659C9.35484 24.128 9.41057 23.9928 9.50832 23.895L10.3305 23.0728C10.4283 22.9751 10.5635 22.9194 10.7014 22.9194C10.9906 22.9194 11.2258 23.1546 11.2258 23.4437C11.2258 23.5817 11.1701 23.7169 11.0723 23.8146L10.2501 24.6368C10.1524 24.7346 10.0172 24.7903 9.87922 24.7903C9.59008 24.7903 9.35484 24.5551 9.35484 24.2659ZM10.7581 25.6692C10.7581 25.5312 10.8138 25.396 10.9115 25.2983L11.7337 24.4761C11.8315 24.3783 11.9667 24.3226 12.1046 24.3226C12.3938 24.3226 12.629 24.5578 12.629 24.847C12.629 24.9849 12.5733 25.1201 12.4756 25.2179L11.6534 26.0401C11.5556 26.1378 11.4204 26.1935 11.2824 26.1935C10.9933 26.1935 10.7581 25.9583 10.7581 25.6692ZM12.6857 27.5968C12.3965 27.5968 12.1613 27.3615 12.1613 27.0724C12.1613 26.9344 12.217 26.7992 12.3148 26.7015L13.137 25.8793C13.2347 25.7815 13.3699 25.7258 13.5079 25.7258C13.797 25.7258 14.0323 25.961 14.0323 26.2502C14.0323 26.3881 13.9765 26.5233 13.8788 26.6211L13.0566 27.4433C12.9588 27.541 12.8236 27.5968 12.6857 27.5968ZM14.9476 28.0645H14.8611C14.7419 28.0645 14.6277 28.0211 14.5388 27.9423L14.1889 27.6338L14.5402 27.2825C14.6656 27.1571 14.7629 27.008 14.8348 26.8479L15.2601 27.2019C15.3713 27.2946 15.4355 27.4312 15.4355 27.5767C15.4355 27.8457 15.2167 28.0645 14.9476 28.0645V28.0645ZM19.1422 23.8548H19.0614C18.944 23.8548 18.8294 23.8133 18.7396 23.7379L16.2031 21.6242L15.6038 22.3431L18.067 24.3954C18.1778 24.4882 18.2419 24.6247 18.2419 24.7702C18.2419 25.0393 18.0231 25.2581 17.7541 25.2581H17.652C17.5385 25.2581 17.4275 25.2179 17.34 25.1448L14.7994 23.0278L14.2001 23.7468L16.6633 25.7993C16.7745 25.8914 16.8387 26.028 16.8387 26.1735C16.8387 26.4425 16.6199 26.6613 16.3509 26.6613C16.1714 26.6613 15.9964 26.5976 15.8587 26.4831L14.8147 25.613C14.5847 25.143 14.1122 24.8152 13.5588 24.7956C13.5319 24.0325 12.9186 23.4193 12.1556 23.3923C12.1286 22.6293 11.5154 22.0161 10.7524 21.9891C10.7249 21.2083 10.0855 20.5806 9.2982 20.5806C8.91382 20.5806 8.53766 20.7364 8.26588 21.0082L7.44367 21.8304C7.39457 21.8795 7.35392 21.9352 7.31258 21.9905L5.87578 21.1283L7.13535 16.7199L10.2931 16.0179C11.1214 15.8327 11.9948 15.8729 12.8026 16.1314L13.4917 16.3518L11.1557 17.5198C10.6219 17.7872 10.2903 18.3242 10.2903 18.9212V19.0137C10.2903 19.8777 10.9933 20.5806 11.8573 20.5806C12.1412 20.5806 12.4205 20.5034 12.6633 20.3571L14.405 19.3126C14.7549 19.103 15.2245 19.1489 15.5266 19.4207L19.4787 22.9774C19.5844 23.0733 19.6452 23.2094 19.6452 23.3519C19.6452 23.6294 19.4197 23.8548 19.1422 23.8548V23.8548ZM28.0645 18.4205L20.1844 22.3609C20.1588 22.3338 20.1321 22.308 20.104 22.2828L16.1526 18.7261C15.8064 18.4137 15.3587 18.2419 14.8924 18.2419C14.5514 18.2419 14.2166 18.3347 13.9233 18.5105L12.1809 19.5554C12.0832 19.6143 11.9715 19.6452 11.8573 19.6452C11.5088 19.6452 11.2258 19.3622 11.2258 19.0137V18.9212C11.2258 18.6802 11.3596 18.4642 11.5748 18.3566L14.1839 17.052C14.6304 16.8284 15.1605 16.7784 15.6417 16.9168L18.5811 17.7564L19.293 17.7742L28.0645 13.1575V18.4205Z" fill="#00BFF3"/>
</svg>
