<svg width="20" height="20" viewBox="0 0 20 20" fill="none" xmlns="http://www.w3.org/2000/svg">
<path d="M19.9493 17.1376C19.8614 16.7152 19.4477 16.4441 19.0252 16.532C18.6028 16.6199 18.3316 17.0337 18.4196 17.4561C18.4703 17.6994 18.4099 17.9488 18.2541 18.1404C18.1639 18.2514 17.9627 18.4375 17.6292 18.4375H2.37081C2.03729 18.4375 1.83608 18.2513 1.74584 18.1404C1.59002 17.9488 1.52971 17.6994 1.58038 17.4561C2.39116 13.5617 5.82612 10.717 9.79288 10.621C9.86159 10.6237 9.93061 10.625 9.99999 10.625C10.0696 10.625 10.1389 10.6236 10.2079 10.621C13.0021 10.688 15.5848 12.1033 17.1488 14.4358C17.389 14.7942 17.8743 14.8899 18.2328 14.6496C18.5911 14.4094 18.6869 13.9241 18.4465 13.5657C17.1646 11.6538 15.3032 10.2636 13.1808 9.56504C14.4741 8.59516 15.3125 7.04988 15.3125 5.3125C15.3125 2.3832 12.9293 0 9.99999 0C7.07065 0 4.68749 2.3832 4.68749 5.3125C4.68749 7.05094 5.52686 8.59703 6.82159 9.56684C5.63534 9.95738 4.52225 10.5651 3.54803 11.3664C1.76163 12.8358 0.519555 14.8854 0.0506881 17.1376C-0.096265 17.8433 0.0797896 18.5682 0.533618 19.1262C0.985219 19.6815 1.65487 20 2.37081 20H17.6291C18.3451 20 19.0148 19.6815 19.4663 19.1262C19.9202 18.5682 20.0962 17.8433 19.9493 17.1376ZM6.24999 5.3125C6.24999 3.24473 7.93221 1.5625 9.99999 1.5625C12.0678 1.5625 13.75 3.24473 13.75 5.3125C13.75 7.3166 12.1697 8.95855 10.1898 9.05773C10.1266 9.05656 10.0633 9.05598 9.99999 9.05598C9.93694 9.05598 9.87389 9.0566 9.81092 9.05777C7.83065 8.95898 6.24999 7.31688 6.24999 5.3125Z" fill="#00BFF3"/>
</svg>
